<svg width="120" height="120" viewBox="0 0 120 120" fill="none" xmlns="http://www.w3.org/2000/svg">
<path d="M60 120C93.1371 120 120 93.1371 120 60C120 26.8629 93.1371 0 60 0C26.8629 0 0 26.8629 0 60C0 93.1371 26.8629 120 60 120Z" fill="white"/>
<path fill-rule="evenodd" clip-rule="evenodd" d="M50.281 82.3446C48.5163 82.5186 46.8013 82.8666 45.0863 83.0406C44.6141 83.5874 44.2661 84.3082 43.769 84.9793C43.3713 85.4764 42.7251 86.4457 42.1037 86.4706C41.5321 86.4954 40.9853 85.7995 40.339 85.7746C39.5437 85.7249 39.3945 86.048 38.6737 86.4706C38.3258 85.9735 37.9778 85.4764 37.7044 84.8798C30.6953 87.2659 24.2578 90.6959 21.0267 96.8848C20.9024 97.1334 20.7781 97.3819 20.6787 97.6305C30.5959 107.995 44.5644 114.432 60.0242 114.432C80.3059 114.432 97.9778 103.347 107.348 86.918C88.3341 82.792 69.8171 80.3562 50.3059 82.3446H50.281ZM85.3515 88.6578H90.5213L91.3415 101.856H87.141L86.5942 91.7398V91.4664C86.5942 91.1184 86.4948 90.9445 86.296 90.9196C86.2214 90.9196 86.1468 90.9445 86.0723 90.9942C85.9977 91.0439 85.8983 91.1682 85.774 91.3919L82.2943 96.3629L82.0955 96.686C82.0706 96.7605 82.0706 96.8351 82.0955 96.8848C82.1203 97.0091 82.1949 97.0837 82.3191 97.1085C82.3689 97.1334 82.4434 97.1334 82.5428 97.1085H86.1468L85.6746 98.5501H84.9786H84.3821C83.6862 98.5501 83.0399 98.5749 82.4683 98.6495C81.8966 98.7241 81.3995 98.8484 80.977 99.0472C80.4053 99.3206 79.8834 99.7431 79.3863 100.365L78.1932 101.856H75.6332L85.3266 88.6578H85.3515ZM49.6597 88.6578L53.2636 88.6827C53.2139 88.6827 52.866 89.1052 52.2446 89.9254C50.803 91.7895 49.262 94.4242 49.262 96.8351C49.262 98.1524 49.5354 99.1218 50.0573 99.6934C50.5047 100.166 51.1758 100.414 52.0209 100.414C54.8046 100.414 56.6191 96.4623 56.6191 94.0513C56.6191 93.3554 56.5445 92.7837 56.3705 92.3612C56.1717 91.8144 55.7988 91.4416 55.2769 91.193C55.1526 91.1433 55.0283 91.0936 54.8544 91.0687C54.6804 91.0439 54.5064 91.019 54.3324 91.019C54.059 91.019 53.8353 91.019 53.6862 91.0439C53.537 91.0687 53.3879 91.0936 53.2139 91.1184V89.9503L57.8121 88.4341C58.5826 88.7075 59.1791 89.0058 59.552 89.304C60.7201 90.1988 61.3167 91.367 61.3167 92.8334C61.3167 94.0265 61.0681 95.1201 60.5462 96.0895C60.0988 96.9097 59.378 97.8293 58.3838 98.8484C57.3647 99.8674 56.1468 100.663 54.7301 101.21C53.4873 101.682 52.2694 101.93 51.1012 101.93C49.1377 101.93 47.6215 101.384 46.5528 100.29C45.5337 99.2709 45.0366 97.9039 45.0366 96.2386C45.0366 94.8467 45.4343 93.5045 46.2297 92.1872C46.8013 91.2427 47.547 90.3728 48.4666 89.5774C49.1626 88.9809 49.5602 88.6827 49.6845 88.6827L49.6597 88.6578ZM44.3655 88.9809L43.0979 94.2502H41.3084C41.3581 94.101 41.3829 93.9022 41.4326 93.7034C41.4575 93.5045 41.4824 93.2311 41.4824 92.9329C41.4824 92.2121 41.3581 91.6404 41.1095 91.2179C40.7616 90.6462 40.1899 90.3479 39.3945 90.3479C36.1634 90.3479 32.634 96.5866 35.1195 99.3952C36.5611 101.036 38.4998 100.315 40.0408 99.2709C40.3887 99.0223 40.861 98.6495 41.4326 98.1524L43.2222 99.2958L42.4517 100.017C41.7806 100.588 41.035 101.036 40.2396 101.359C39.0714 101.856 37.8784 102.104 36.6356 102.104C34.8212 102.104 33.3299 101.657 32.112 100.762C30.7698 99.7431 30.0988 98.3513 30.0988 96.5866C30.0988 94.2005 31.1427 92.2618 33.2056 90.7456C35.1692 89.3289 37.605 88.6081 40.4633 88.6081C41.1095 88.6081 41.9546 88.6827 42.9737 88.8069C43.3216 88.8566 43.769 88.9064 44.3655 89.0058V88.9809ZM73.3962 88.6578C74.3158 88.7324 74.9869 88.8566 75.4343 89.0058C76.8262 89.478 77.4973 90.3231 77.4973 91.5161C77.4973 94.1259 74.465 94.9213 72.4517 95.8658C74.1418 96.2386 76.0308 96.9345 76.0308 98.9726C76.0308 99.942 75.6332 100.837 74.8378 101.657C73.3713 103.198 71.4327 103.993 69.3448 104.242C68.5495 104.341 67.6795 104.391 66.7102 104.391H65.9397H31.0184L32.7085 103.596C32.7085 103.596 66.3622 103.198 66.9836 103.074C68.8726 102.651 71.0598 101.732 71.5818 99.6686C71.9546 98.227 71.1344 97.3073 69.7922 96.8102C69.3697 96.6611 68.7483 96.5368 67.9281 96.4126L68.2264 95.1201C69.2951 95.0704 70.0905 94.9958 70.6124 94.8218C72.2032 94.3745 72.9985 93.5045 72.9985 92.2121C72.9985 90.5716 70.8361 90.2485 69.5934 90.2485C69.2206 90.2485 68.8477 90.2734 68.4998 90.2982L65.4923 101.856H61.1924L64.6721 88.6329H73.3962V88.6578Z" fill="#EF7D00"/>
<path fill-rule="evenodd" clip-rule="evenodd" d="M35.1955 74.6893C35.1458 72.8997 34.9221 71.1599 34.8476 69.3952C34.773 67.6305 35.0961 65.9403 35.295 64.2005C35.6926 60.7953 36.0903 57.3902 36.5377 54.0596C37.4076 47.4979 38.7995 41.135 42.6272 37.4068C43.3728 36.686 44.2925 36.2634 45.0133 35.5675C43.3231 32.0629 44.6156 26.8185 45.8832 23.7614C46.256 22.9163 46.8277 22.0712 46.952 21.3007C47.3496 18.7407 45.9578 16.9014 46.3306 14.1673C46.6537 13.6951 46.9023 14.9875 47.4739 14.5402C47.7722 14.0182 47.9462 13.372 48.2693 12.8749H48.3687C48.7415 13.5957 49.0895 14.8881 49.6114 16.106C50.0091 17.1002 50.5808 18.517 51.3762 18.7407C52.5692 19.0638 54.6073 18.3678 55.4275 18.0199C56.6206 17.5228 57.5153 16.9014 58.435 16.3546C58.7084 16.628 58.7084 16.8517 58.8824 17.0505C59.8766 18.3181 62.6852 17.0505 64.6239 17.4979C64.8973 16.0066 65.0961 14.4407 65.8666 13.4465C66.3637 13.5957 66.2643 14.3413 66.836 14.4159C67.6065 14.217 67.855 13.4962 68.7747 13.4465C68.0787 14.8881 68.3273 16.5783 68.3273 18.5667C68.3273 19.2626 68.1781 20.2071 68.3273 20.7788C68.5013 21.425 69.5949 22.0712 69.9926 22.8169C71.8815 26.1972 70.937 31.3919 69.7192 34.9958C70.4897 35.6918 71.1607 36.1392 71.6578 36.9345C73.3728 39.6686 73.0497 43.7697 72.2792 46.9014C69.9677 56.1226 62.71 61.5161 59.5783 69.4697C59.5535 69.7431 59.9263 69.8923 60.1003 70.0911C60.7713 70.7622 61.2684 71.9552 61.691 72.9991C80.2577 73.7945 95.2452 78.1441 109.164 83.6122C112.569 76.4788 114.483 68.5252 114.483 60.0994C114.483 30.0248 90.1003 5.64206 60.0257 5.64206C29.9511 5.64206 5.56836 30.0248 5.56836 60.0994C5.56836 68.9726 7.70589 77.3736 11.459 84.7804C11.9064 84.4325 12.3538 84.1093 12.826 83.7862C19.0398 79.4117 26.9188 76.5037 35.2204 74.7887L35.1955 74.6893Z" fill="#96C11E"/>
</svg>