<svg width="400" height="50" viewBox="0 0 400 50" fill="none" xmlns="http://www.w3.org/2000/svg">
<circle cx="375" cy="25" r="20" fill="#D9D9D9"/>
<circle cx="375" cy="20.5" r="6" stroke="white" stroke-width="3"/>
<path d="M375 26.5V27C375 29.2091 373.209 31 371 31H369C367.343 31 366 32.3431 366 34V37" stroke="white" stroke-width="3"/>
<path d="M375 26.5V27C375 29.2091 376.791 31 379 31H381C382.657 31 384 32.3431 384 34V37" stroke="white" stroke-width="3"/>
<circle cx="325" cy="25" r="7" fill="#EB515F"/>
<path d="M324.82 26.6607H325.449L325.67 23.4166V21H324.599V23.4166L324.82 26.6607ZM324.5 29H325.769V27.731H324.5V29Z" fill="white"/>
<rect x="260" y="11" width="30" height="29" rx="4" fill="#8C8C8C"/>
<path fill-rule="evenodd" clip-rule="evenodd" d="M279.607 19L281.021 20.4142L276.425 25.0104L281.021 29.6066L279.607 31.0208L275.01 26.4246L270.414 31.0208L269 29.6066L273.596 25.0104L269 20.4142L270.414 19L275.01 23.5962L279.607 19Z" fill="white"/>
<path fill-rule="evenodd" clip-rule="evenodd" d="M229.607 19L231.021 20.4142L226.425 25.0104L231.021 29.6066L229.607 31.0208L225.01 26.4246L220.414 31.0208L219 29.6066L223.596 25.0104L219 20.4142L220.414 19L225.01 23.5962L229.607 19Z" fill="white"/>
<circle cx="175" cy="25" r="14" fill="#8C8C8C"/>
<path d="M177 20L172 25.5L177 31" stroke="white" stroke-width="2" stroke-linecap="round"/>
<circle cx="125" cy="25" r="14" fill="#B3B3B3"/>
<path d="M127 20L122 25.5L127 31" stroke="white" stroke-width="2" stroke-linecap="round"/>
<path fill-rule="evenodd" clip-rule="evenodd" d="M65 25.1591C66.6514 20.9686 70.7273 18 75.5 18C80.2775 18 84.3486 20.9686 86 25.1591C84.3486 29.3495 80.2775 32.3182 75.5 32.3182C70.7273 32.3182 66.6514 29.3495 65 25.1591ZM70.7273 25.159C70.7273 27.7936 72.8655 29.9318 75.5 29.9318C78.1345 29.9318 80.2727 27.7936 80.2727 25.1591C80.2727 22.5245 78.1345 20.3863 75.5 20.3863C72.8655 20.3863 70.7273 22.5245 70.7273 25.159ZM72.6363 25.1591C72.6363 23.5793 73.9202 22.2954 75.4999 22.2954C77.0797 22.2954 78.3636 23.5793 78.3636 25.1591C78.3636 26.7388 77.0797 28.0227 75.4999 28.0227C73.9202 28.0227 72.6363 26.7388 72.6363 25.1591Z" fill="#1D1D1F"/>
<path d="M32.5 18L17.5 32.5" stroke="#B3B3B3" stroke-width="2"/>
<path fill-rule="evenodd" clip-rule="evenodd" d="M21.3728 31.5378C22.6508 32.0415 24.0429 32.3182 25.5 32.3182C30.2775 32.3182 34.3486 29.3495 36 25.1591C35.2947 23.3693 34.148 21.8025 32.6934 20.5946L29.8961 23.2987C30.1386 23.8705 30.2727 24.4992 30.2727 25.1591C30.2727 27.7936 28.1345 29.9318 25.5 29.9318C24.7828 29.9318 24.1023 29.7733 23.4918 29.4895L21.3728 31.5378ZM25.0463 27.9868C25.1941 28.0104 25.3456 28.0227 25.4999 28.0227C27.0797 28.0227 28.3636 26.7388 28.3636 25.1591C28.3636 25.038 28.356 24.9187 28.3414 24.8016L25.0463 27.9868ZM29.0368 18.566C27.925 18.1987 26.7361 18 25.5 18C20.7273 18 16.6514 20.9686 15 25.1591C15.6347 26.7697 16.6276 28.1999 17.8806 29.3503L20.8992 26.4323C20.7871 26.0269 20.7273 25.5999 20.7273 25.159C20.7273 22.5245 22.8655 20.3863 25.5 20.3863C25.9975 20.3863 26.4774 20.4626 26.9284 20.6041L29.0368 18.566ZM22.6697 24.7208C22.864 23.4596 23.8833 22.468 25.1577 22.3157L22.6697 24.7208Z" fill="#B3B3B3"/>
</svg>
